<?xml version="1.0" encoding="UTF-8"?>
<!DOCTYPE svg PUBLIC "-//W3C//DTD SVG 1.1//EN" "http://www.w3.org/Graphics/SVG/1.1/DTD/svg11.dtd">
<!-- Creator: CorelDRAW 2018 (64-Bit) -->
<svg xmlns="http://www.w3.org/2000/svg" xml:space="preserve" width="115.716mm" height="50.1996mm" version="1.1" style="shape-rendering:geometricPrecision; text-rendering:geometricPrecision; image-rendering:optimizeQuality; fill-rule:evenodd; clip-rule:evenodd"
viewBox="0 0 49301.6 21387.87"
 xmlns:xlink="http://www.w3.org/1999/xlink">
 <defs>
  <style type="text/css">
   <![CDATA[
    .fil1 {fill:#20A163}
    .fil2 {fill:#20A163}
    .fil0 {fill:white;fill-rule:nonzero}
   ]]>
  </style>
 </defs>
 <g id="Layer_x0020_1">
  <metadata id="CorelCorpID_0Corel-Layer"/>
  <g id="_2705530394944">
   <g>
    <path class="fil0" d="M17620.04 12504.21c-131.69,0 -242.09,18.41 -331.17,55.22 -89.05,36.77 -161.69,86.15 -217.84,148.14 -56.15,61.99 -97.82,133.61 -124.92,214.99 -27.1,81.33 -46.48,166.55 -58.11,255.63 -7.75,50.32 -12.57,120.06 -14.53,209.15 -1.92,89.09 -2.9,181.07 -2.9,275.96 0,94.88 1.96,187.85 5.84,278.9 3.83,91.01 7.71,161.69 11.59,212.05 7.75,89.09 26.16,174.3 55.22,255.63 29.06,81.33 71.66,153 127.82,214.95 56.15,61.99 129.73,111.37 220.78,148.18 91.01,36.77 200.42,55.17 328.23,55.17 100.72,0 195.6,-11.59 284.69,-34.85 89.09,-23.22 166.55,-60.03 232.41,-110.39 65.83,-50.36 118.15,-116.19 156.87,-197.52 38.73,-81.33 58.07,-180.14 58.07,-296.32l-488.01 0c-42.61,0 -79.42,-15.51 -110.39,-46.48 -31.02,-30.97 -46.48,-67.79 -46.48,-110.39l0 -615.82c0,-42.61 15.47,-79.42 46.48,-110.39 30.97,-31.02 67.79,-46.48 110.39,-46.48l1405.99 0c42.61,0 79.42,15.47 110.39,46.48 30.97,30.97 46.48,67.79 46.48,110.39l0 743.64c0,247.92 -46.48,470.62 -139.45,668.14 -92.97,197.56 -220.78,365.09 -383.45,502.58 -162.67,137.49 -353.46,243.02 -572.28,316.65 -218.82,73.58 -456.09,110.39 -711.73,110.39 -278.85,0 -527.71,-41.67 -746.58,-124.92 -218.82,-83.29 -405.69,-196.58 -560.65,-339.91 -154.91,-143.28 -274.04,-310.81 -357.29,-502.53 -83.29,-191.73 -130.71,-394.1 -142.35,-607.13 -7.75,-158.83 -11.63,-329.26 -11.63,-511.27 0,-182.05 3.88,-356.35 11.63,-522.9 7.75,-213.03 54.24,-415.41 139.45,-607.13 85.21,-191.73 204.29,-359.25 357.29,-502.58 153,-143.33 339.87,-256.61 560.65,-339.87 220.78,-83.29 470.62,-124.92 749.48,-124.92 271.14,0 515.14,39.71 732.05,119.08 216.91,79.42 400.88,180.14 551.96,302.12 151.04,122.02 269.18,255.63 354.39,400.88 85.21,145.29 131.69,283.75 139.45,415.45 3.88,34.85 -7.75,64.85 -34.85,90.03 -27.14,25.18 -58.11,37.79 -92.97,37.79l-772.74 0c-58.07,0 -103.57,-17.43 -136.51,-52.32 -32.93,-34.85 -64.89,-69.7 -95.86,-104.55 -54.24,-69.75 -127.82,-133.65 -220.78,-191.73 -92.97,-58.11 -234.33,-87.17 -424.14,-87.17zm5374.19 2265.9c42.61,0 79.42,15.47 110.39,46.48 31.02,30.97 46.48,67.74 46.48,110.35l0 615.86c0,42.61 -15.47,79.42 -46.48,110.39 -30.97,30.97 -67.79,46.48 -110.39,46.48l-2753.9 0c-42.61,0 -79.37,-15.51 -110.39,-46.48 -30.97,-30.97 -46.44,-67.79 -46.44,-110.39l0 -3753.22c0,-42.61 15.47,-79.37 46.44,-110.39 31.02,-30.97 67.79,-46.44 110.39,-46.44l2707.42 0c42.65,0 79.42,15.47 110.39,46.44 31.02,31.02 46.48,67.79 46.48,110.39l0 615.86c0,42.61 -15.47,79.42 -46.48,110.39 -30.97,30.97 -67.74,46.48 -110.39,46.48l-1789.44 0 0 627.45 1661.62 0c42.61,0 79.42,15.51 110.39,46.48 31.02,31.02 46.48,67.79 46.48,110.39l0 615.86c0,42.61 -15.47,79.42 -46.48,110.39 -30.97,30.97 -67.79,46.48 -110.39,46.48l-1661.62 0 0 650.72 1835.92 0zm3468.57 929.57c-65.87,0 -119.13,-17.43 -159.77,-52.28 -40.69,-34.85 -66.85,-61.99 -78.44,-81.33l-1330.49 -1987 0 1963.74c0,42.61 -15.51,79.42 -46.48,110.39 -30.97,30.97 -67.79,46.48 -110.39,46.48l-761.11 0c-42.61,0 -79.37,-15.51 -110.39,-46.48 -30.97,-30.97 -46.44,-67.79 -46.44,-110.39l0 -3753.22c0,-42.61 15.47,-79.37 46.44,-110.39 31.02,-30.97 67.79,-46.44 110.39,-46.44l604.23 0c65.87,0 119.13,17.43 159.77,52.28 40.69,34.85 66.85,61.95 78.44,81.33l1330.49 1987 0 -1963.78c0,-42.61 15.51,-79.37 46.48,-110.39 30.97,-30.97 67.79,-46.44 110.39,-46.44l761.11 0c42.61,0 79.37,15.47 110.39,46.44 30.97,31.02 46.44,67.79 46.44,110.39l0 3753.22c0,42.61 -15.47,79.42 -46.44,110.39 -31.02,30.97 -67.79,46.48 -110.39,46.48l-604.23 0zm4473.59 -3195.47c-131.69,0 -242.09,18.41 -331.17,55.22 -89.05,36.77 -161.69,86.15 -217.84,148.14 -56.15,61.99 -97.82,133.61 -124.92,214.99 -27.1,81.33 -46.48,166.55 -58.11,255.63 -7.75,50.32 -12.57,120.06 -14.53,209.15 -1.92,89.09 -2.9,181.07 -2.9,275.96 0,94.88 1.96,187.85 5.84,278.9 3.83,91.01 7.71,161.69 11.59,212.05 7.75,89.09 26.16,174.3 55.22,255.63 29.06,81.33 71.66,153 127.82,214.95 56.15,61.99 129.73,111.37 220.78,148.18 91.01,36.77 200.42,55.17 328.23,55.17 100.72,0 195.6,-11.59 284.69,-34.85 89.09,-23.22 166.55,-60.03 232.41,-110.39 65.83,-50.36 118.15,-116.19 156.87,-197.52 38.73,-81.33 58.07,-180.14 58.07,-296.32l-488.01 0c-42.61,0 -79.42,-15.51 -110.39,-46.48 -31.02,-30.97 -46.48,-67.79 -46.48,-110.39l0 -615.82c0,-42.61 15.47,-79.42 46.48,-110.39 30.97,-31.02 67.79,-46.48 110.39,-46.48l1405.99 0c42.61,0 79.42,15.47 110.39,46.48 30.97,30.97 46.48,67.79 46.48,110.39l0 743.64c0,247.92 -46.48,470.62 -139.45,668.14 -92.97,197.56 -220.78,365.09 -383.45,502.58 -162.67,137.49 -353.46,243.02 -572.28,316.65 -218.82,73.58 -456.09,110.39 -711.73,110.39 -278.85,0 -527.71,-41.67 -746.58,-124.92 -218.82,-83.29 -405.69,-196.58 -560.65,-339.91 -154.91,-143.28 -274.04,-310.81 -357.29,-502.53 -83.29,-191.73 -130.71,-394.1 -142.35,-607.13 -7.75,-158.83 -11.63,-329.26 -11.63,-511.27 0,-182.05 3.88,-356.35 11.63,-522.9 7.75,-213.03 54.24,-415.41 139.45,-607.13 85.21,-191.73 204.29,-359.25 357.29,-502.58 153,-143.33 339.87,-256.61 560.65,-339.87 220.78,-83.29 470.62,-124.92 749.48,-124.92 271.14,0 515.14,39.71 732.05,119.08 216.91,79.42 400.88,180.14 551.96,302.12 151.04,122.02 269.18,255.63 354.39,400.88 85.21,145.29 131.69,283.75 139.45,415.45 3.88,34.85 -7.75,64.85 -34.85,90.03 -27.14,25.18 -58.11,37.79 -92.97,37.79l-772.74 0c-58.07,0 -103.57,-17.43 -136.51,-52.32 -32.93,-34.85 -64.89,-69.7 -95.86,-104.55 -54.24,-69.75 -127.82,-133.65 -220.78,-191.73 -92.97,-58.11 -234.33,-87.17 -424.14,-87.17zm4194.78 -871.46c255.63,0 484.17,27.1 685.57,81.33 201.44,54.19 372.8,135.53 514.21,244 141.37,108.43 249.8,246.9 325.34,415.41 75.54,168.51 113.29,365.05 113.29,589.7 0,290.49 -60.03,531.59 -180.09,723.36 -120.06,191.73 -290.49,337.91 -511.27,438.63l720.42 1382.77c11.63,23.22 17.43,44.52 17.43,63.91 0,34.85 -12.57,64.89 -37.75,90.07 -25.18,25.18 -55.22,37.75 -90.07,37.75l-790.16 0c-77.46,0 -132.63,-17.43 -165.57,-52.28 -32.93,-34.85 -59.05,-69.75 -78.44,-104.6l-644.88 -1243.32 -534.53 0 0 1243.32c0,42.61 -15.51,79.42 -46.48,110.39 -30.97,30.97 -67.79,46.48 -110.39,46.48l-761.11 0c-42.61,0 -79.37,-15.51 -110.39,-46.48 -30.97,-30.97 -46.44,-67.79 -46.44,-110.39l0 -3753.22c0,-42.61 15.47,-79.37 46.44,-110.39 31.02,-30.97 67.79,-46.44 110.39,-46.44l1574.49 0zm-656.51 1760.38l656.51 0c162.71,0 297.3,-30.97 403.82,-92.97 106.51,-61.95 159.77,-174.3 159.77,-336.97 0,-162.67 -53.26,-275.02 -159.77,-336.97 -106.51,-61.99 -241.11,-92.97 -403.82,-92.97l-656.51 0 0 859.87zm2829.44 -244c11.63,-216.91 59.09,-421.24 142.35,-612.97 83.29,-191.73 201.4,-358.27 354.39,-499.64 153,-141.37 338.93,-253.72 557.75,-336.97 218.87,-83.29 471.6,-124.92 758.21,-124.92 282.73,0 534.53,41.63 755.27,124.92 220.78,83.25 407.69,195.6 560.69,336.97 153,141.37 271.1,307.91 354.39,499.64 83.29,191.73 130.71,396.06 142.35,612.97 7.75,166.55 11.63,340.85 11.63,522.9 0,182.01 -3.88,352.43 -11.63,511.27 -11.63,216.91 -59.05,421.2 -142.35,612.92 -83.29,191.73 -201.4,359.25 -354.39,502.58 -153,143.28 -339.91,255.63 -560.69,336.97 -220.74,81.33 -472.54,122.02 -755.27,122.02 -286.61,0 -539.34,-40.69 -758.21,-122.02 -218.82,-81.33 -404.75,-193.69 -557.75,-336.97 -153,-143.33 -271.1,-310.85 -354.39,-502.58 -83.25,-191.73 -130.71,-396.02 -142.35,-612.92 -7.75,-158.83 -11.63,-329.26 -11.63,-511.27 0,-182.05 3.88,-356.35 11.63,-522.9zm2550.54 1005.11c3.88,-69.7 7.75,-147.2 11.63,-232.41 3.88,-85.21 5.79,-172.34 5.79,-261.43 0,-89.09 -1.92,-175.28 -5.79,-258.53 -3.88,-83.29 -7.75,-157.85 -11.63,-223.68 -7.71,-96.84 -28.08,-185.93 -60.97,-267.27 -32.93,-81.33 -79.42,-152.02 -139.45,-212.09 -60.03,-60.03 -134.59,-107.45 -223.68,-142.3 -89.09,-34.89 -193.69,-52.32 -313.75,-52.32 -120.06,0 -224.66,17.43 -313.75,52.32 -89.09,34.85 -163.65,82.27 -223.68,142.3 -60.03,60.07 -106.51,130.76 -139.41,212.09 -32.93,81.33 -53.3,170.42 -61.01,267.27 -7.75,65.83 -12.61,140.39 -14.53,223.68 -1.96,83.25 -2.9,169.44 -2.9,258.53 0,89.09 0.94,176.22 2.9,261.43 1.92,85.21 6.77,162.71 14.53,232.41 15.47,193.64 82.31,354.39 200.42,482.21 118.15,127.82 297.3,191.73 537.43,191.73 240.13,0 418.3,-63.91 534.53,-191.73 116.19,-127.82 183.97,-288.57 203.31,-482.21zm5089.5 -2521.49c42.61,0 79.42,15.47 110.39,46.44 30.97,31.02 46.48,67.79 46.48,110.39l0 2318.17c0,267.27 -42.61,503.51 -127.82,708.83 -85.21,205.27 -206.25,377.61 -363.13,517.06 -156.87,139.45 -343.74,244.98 -560.65,316.65 -216.91,71.66 -455.11,107.49 -714.62,107.49 -263.39,0 -503.51,-35.83 -720.42,-107.49 -216.91,-71.66 -402.84,-177.2 -557.75,-316.65 -154.96,-139.45 -275.02,-311.79 -360.23,-517.06 -85.21,-205.32 -127.82,-441.56 -127.82,-708.83l0 -2318.17c0,-42.61 15.51,-79.37 46.48,-110.39 30.97,-30.97 67.79,-46.44 110.39,-46.44l761.11 0c42.61,0 79.37,15.47 110.39,46.44 30.97,31.02 46.48,67.79 46.48,110.39l0 2294.95c0,232.37 57.09,414.43 171.36,546.12 114.27,131.69 287.59,197.52 520,197.52 232.41,0 405.73,-65.83 520,-197.52 114.23,-131.69 171.36,-313.75 171.36,-546.12l0 -2294.95c0,-42.61 15.51,-79.37 46.48,-110.39 31.02,-30.97 67.79,-46.44 110.39,-46.44l761.11 0zm2748.11 0c247.88,0 470.58,28.08 668.14,84.23 197.52,56.15 366.03,141.37 505.47,255.63 139.41,114.27 246.9,256.61 322.44,427.04 75.54,170.42 113.29,367.94 113.29,592.6 0,228.54 -37.75,427.97 -113.29,598.44 -75.54,170.42 -183.03,311.79 -322.44,424.1 -139.45,112.35 -307.95,197.56 -505.47,255.63 -197.56,58.11 -420.26,87.17 -668.14,87.17l-743.68 0 0 1185.2c0,42.61 -15.51,79.42 -46.48,110.39 -30.97,30.97 -67.79,46.48 -110.39,46.48l-761.11 0c-42.61,0 -79.37,-15.51 -110.39,-46.48 -30.97,-30.97 -46.44,-67.79 -46.44,-110.39l0 -3753.22c0,-42.61 15.47,-79.37 46.44,-110.39 31.02,-30.97 67.79,-46.44 110.39,-46.44l1661.66 0zm-743.68 1818.49l714.62 0c162.67,0 297.26,-35.83 403.77,-107.49 106.51,-71.66 159.77,-188.83 159.77,-351.5 0,-162.67 -53.26,-279.83 -159.77,-351.5 -106.51,-71.66 -241.11,-107.49 -403.77,-107.49l-714.62 0 0 917.98z"/>
    <path class="fil0" d="M17653.82 17823.09l-581.99 0 -120.49 273.78 -161.13 0 495.97 -1095.14 154.87 0 497.51 1095.14 -164.29 0 -120.45 -273.78zm-54.75 -125.18l-236.25 -536.62 -236.25 536.62 472.5 0zm1681.82 -154.87l150.18 0 0 427.12c-54.24,44.82 -117.34,79.25 -189.3,103.23 -71.96,23.99 -147.07,36 -225.3,36 -110.56,0 -210.17,-24.24 -298.79,-72.77 -88.66,-48.49 -158.28,-115.25 -208.9,-200.25 -50.57,-85 -75.84,-180.69 -75.84,-287.08 0,-106.39 25.27,-202.33 75.84,-287.84 50.62,-85.55 120.49,-152.32 209.66,-200.29 89.17,-47.97 189.55,-71.96 301.18,-71.96 87.6,0 167.1,14.36 238.55,43.03 71.45,28.67 132.21,70.68 182.27,125.94l-96.97 97.01c-87.64,-84.49 -193.47,-126.75 -317.63,-126.75 -83.42,0 -158.24,18.02 -224.49,53.98 -66.21,36 -118.1,86.06 -155.68,150.18 -37.54,64.16 -56.28,136.38 -56.28,216.69 0,79.25 18.75,150.95 56.28,215.12 37.58,64.16 89.47,114.48 155.68,150.95 66.25,36.51 140.56,54.79 222.96,54.79 98.04,0 183.55,-23.48 256.57,-70.43l0 -356.69zm449.02 -541.3l156.45 0 0 959.01 592.9 0 0 136.13 -749.35 0 0 -1095.14zm1403.3 1107.66c-110.56,0 -210.17,-24.24 -298.79,-72.77 -88.66,-48.49 -158.28,-115.5 -208.9,-201.01 -50.57,-85.55 -75.84,-180.99 -75.84,-286.31 0,-105.32 25.27,-200.76 75.84,-286.31 50.62,-85.51 120.23,-152.53 208.9,-201.01 88.62,-48.53 188.23,-72.77 298.79,-72.77 109.54,0 208.6,24.24 297.26,72.77 88.66,48.49 158.02,115.25 208.09,200.25 50.06,85 75.07,180.69 75.07,287.08 0,106.39 -25.01,202.08 -75.07,287.08 -50.06,85 -119.42,151.76 -208.09,200.25 -88.66,48.53 -187.72,72.77 -297.26,72.77zm0 -139.24c80.31,0 152.53,-18.28 216.69,-54.79 64.12,-36.47 114.74,-86.79 151.76,-150.95 37.02,-64.16 55.52,-135.87 55.52,-215.12 0,-79.25 -18.49,-150.95 -55.52,-215.12 -37.02,-64.16 -87.64,-114.48 -151.76,-150.95 -64.16,-36.51 -136.38,-54.79 -216.69,-54.79 -80.31,0 -153.04,18.28 -218.23,54.79 -65.19,36.47 -116.31,86.79 -153.34,150.95 -37.02,64.16 -55.52,135.87 -55.52,215.12 0,79.25 18.49,150.95 55.52,215.12 37.02,64.16 88.15,114.48 153.34,150.95 65.19,36.51 137.91,54.79 218.23,54.79zm1556.68 -441.18c63.61,17.72 113.67,49.81 150.18,96.2 36.51,46.4 54.75,105.07 54.75,176 0,94.93 -35.7,167.91 -107.15,219.04 -71.45,51.08 -175.49,76.65 -312.13,76.65l-522.52 0 0 -1095.14 491.24 0c125.13,0 221.89,25.05 290.19,75.11 68.34,50.06 102.47,119.42 102.47,208.04 0,57.39 -13.29,106.94 -39.88,148.65 -26.59,41.71 -62.33,73.54 -107.15,95.44zm-580.42 -400.54l0 350.47 320.69 0c80.31,0 142.13,-14.87 185.42,-44.61 43.24,-29.74 64.89,-73.28 64.89,-130.63 0,-57.35 -21.64,-100.89 -64.89,-130.63 -43.29,-29.74 -105.11,-44.61 -185.42,-44.61l-320.69 0zm359.8 841.72c88.66,0 155.43,-14.61 200.25,-43.8 44.86,-29.23 67.27,-75.11 67.27,-137.7 0,-122.02 -89.17,-183.03 -267.52,-183.03l-359.8 0 0 364.53 359.8 0zm1365.81 -147.07l-581.99 0 -120.49 273.78 -161.13 0 495.97 -1095.14 154.87 0 497.51 1095.14 -164.29 0 -120.45 -273.78zm-54.75 -125.18l-236.25 -536.62 -236.25 536.62 472.5 0zm502.19 -696.18l156.45 0 0 959.01 592.9 0 0 136.13 -749.35 0 0 -1095.14zm2291.97 0l0 1095.14 -128.29 0 -657.06 -816.67 0 816.67 -156.45 0 0 -1095.14 128.29 0 657.06 816.67 0 -816.67 156.45 0zm1123.3 959.01l0 136.13 -794.72 0 0 -1095.14 772.82 0 0 136.13 -616.38 0 0 336.33 549.1 0 0 133.01 -549.1 0 0 353.54 638.28 0zm470.92 -822.89l-375.48 0 0 -136.13 905.84 0 0 136.13 -375.48 0 0 959.01 -154.87 0 0 -959.01zm2235.65 -136.13l-366.11 1095.14 -164.24 0 -298.84 -874.52 -298.79 874.52 -167.4 0 -366.11 -1095.14 161.13 0 295.68 890.2 308.21 -890.2 143.92 0 301.95 894.89 301.95 -894.89 148.65 0zm674.28 1107.66c-110.56,0 -210.17,-24.24 -298.79,-72.77 -88.66,-48.49 -158.28,-115.5 -208.9,-201.01 -50.57,-85.55 -75.84,-180.99 -75.84,-286.31 0,-105.32 25.27,-200.76 75.84,-286.31 50.62,-85.51 120.23,-152.53 208.9,-201.01 88.62,-48.53 188.23,-72.77 298.79,-72.77 109.54,0 208.6,24.24 297.26,72.77 88.66,48.49 158.02,115.25 208.09,200.25 50.06,85 75.07,180.69 75.07,287.08 0,106.39 -25.01,202.08 -75.07,287.08 -50.06,85 -119.42,151.76 -208.09,200.25 -88.66,48.53 -187.72,72.77 -297.26,72.77zm0 -139.24c80.31,0 152.53,-18.28 216.69,-54.79 64.12,-36.47 114.74,-86.79 151.76,-150.95 37.02,-64.16 55.52,-135.87 55.52,-215.12 0,-79.25 -18.49,-150.95 -55.52,-215.12 -37.02,-64.16 -87.64,-114.48 -151.76,-150.95 -64.16,-36.51 -136.38,-54.79 -216.69,-54.79 -80.31,0 -153.04,18.28 -218.23,54.79 -65.19,36.47 -116.31,86.79 -153.34,150.95 -37.02,64.16 -55.52,135.87 -55.52,215.12 0,79.25 18.49,150.95 55.52,215.12 37.02,64.16 88.15,114.48 153.34,150.95 65.19,36.51 137.91,54.79 218.23,54.79zm1552 126.71l-236.25 -336.37c-29.23,2.09 -52.15,3.15 -68.85,3.15l-270.63 0 0 333.22 -156.45 0 0 -1095.14 427.08 0c141.83,0 253.46,33.91 334.8,101.7 81.38,67.79 122.02,161.13 122.02,280.05 0,84.49 -20.83,156.45 -62.55,215.88 -41.75,59.43 -101.19,102.72 -178.35,129.86l259.68 367.64 -170.51 0zm-309.79 -466.23c99.1,0 174.68,-21.35 226.83,-64.12 52.15,-42.78 78.22,-103.79 78.22,-183.03 0,-79.29 -26.07,-140.04 -78.22,-182.27 -52.15,-42.26 -127.73,-63.35 -226.83,-63.35l-265.94 0 0 492.78 265.94 0zm1071.66 -20.32l-200.25 203.4 0 283.16 -156.45 0 0 -1095.14 156.45 0 0 611.73 594.48 -611.73 178.35 0 -467.77 492.82 497.51 602.32 -183.03 0 -419.28 -486.56zm1345.49 -472.45l0 381.7 549.1 0 0 134.55 -549.1 0 0 442.76 -156.45 0 0 -1095.14 772.82 0 0 136.13 -616.38 0zm1318.82 971.54c-110.56,0 -210.17,-24.24 -298.79,-72.77 -88.66,-48.49 -158.28,-115.5 -208.9,-201.01 -50.57,-85.55 -75.84,-180.99 -75.84,-286.31 0,-105.32 25.27,-200.76 75.84,-286.31 50.62,-85.51 120.23,-152.53 208.9,-201.01 88.62,-48.53 188.23,-72.77 298.79,-72.77 109.54,0 208.6,24.24 297.26,72.77 88.66,48.49 158.02,115.25 208.09,200.25 50.06,85 75.07,180.69 75.07,287.08 0,106.39 -25.01,202.08 -75.07,287.08 -50.06,85 -119.42,151.76 -208.09,200.25 -88.66,48.53 -187.72,72.77 -297.26,72.77zm0 -139.24c80.31,0 152.53,-18.28 216.69,-54.79 64.12,-36.47 114.74,-86.79 151.76,-150.95 37.02,-64.16 55.52,-135.87 55.52,-215.12 0,-79.25 -18.49,-150.95 -55.52,-215.12 -37.02,-64.16 -87.64,-114.48 -151.76,-150.95 -64.16,-36.51 -136.38,-54.79 -216.69,-54.79 -80.31,0 -153.04,18.28 -218.23,54.79 -65.19,36.47 -116.31,86.79 -153.34,150.95 -37.02,64.16 -55.52,135.87 -55.52,215.12 0,79.25 18.49,150.95 55.52,215.12 37.02,64.16 88.15,114.48 153.34,150.95 65.19,36.51 137.91,54.79 218.23,54.79zm1552 126.71l-236.25 -336.37c-29.23,2.09 -52.15,3.15 -68.85,3.15l-270.63 0 0 333.22 -156.45 0 0 -1095.14 427.08 0c141.83,0 253.46,33.91 334.8,101.7 81.38,67.79 122.02,161.13 122.02,280.05 0,84.49 -20.83,156.45 -62.55,215.88 -41.75,59.43 -101.19,102.72 -178.35,129.86l259.68 367.64 -170.51 0zm-309.79 -466.23c99.1,0 174.68,-21.35 226.83,-64.12 52.15,-42.78 78.22,-103.79 78.22,-183.03 0,-79.29 -26.07,-140.04 -78.22,-182.27 -52.15,-42.26 -127.73,-63.35 -226.83,-63.35l-265.94 0 0 492.78 265.94 0zm1930.55 330.11l0 136.13 -794.72 0 0 -1095.14 772.82 0 0 136.13 -616.38 0 0 336.33 549.1 0 0 133.01 -549.1 0 0 353.54 638.28 0zm253.46 -959.01l461.5 0c115.76,0 218.52,22.96 308.21,68.85 89.68,45.89 159.3,110.26 208.85,193.22 49.55,82.91 74.3,178.09 74.3,285.5 0,107.41 -24.75,202.59 -74.3,285.5 -49.55,82.95 -119.17,147.33 -208.85,193.22 -89.68,45.89 -192.45,68.85 -308.21,68.85l-461.5 0 0 -1095.14zm452.13 959.01c88.62,0 166.59,-17.21 233.86,-51.6 67.27,-34.43 119.17,-82.65 155.68,-144.73 36.51,-62.08 54.75,-133.78 54.75,-215.12 0,-81.33 -18.24,-153.04 -54.75,-215.12 -36.51,-62.08 -88.41,-110.31 -155.68,-144.73 -67.27,-34.38 -145.24,-51.6 -233.86,-51.6l-295.68 0 0 822.89 295.68 0zm1293.81 148.65c-146.01,0 -259.68,-41.71 -341.06,-125.18 -81.33,-83.42 -122.02,-203.36 -122.02,-359.8l0 -622.68 156.45 0 0 616.42c0,234.67 102.76,352.01 308.21,352.01 100.12,0 176.77,-28.97 229.99,-86.83 53.17,-57.9 79.8,-146.31 79.8,-265.18l0 -616.42 151.76 0 0 622.68c0,157.47 -40.69,277.66 -122.07,360.61 -81.33,82.91 -195.01,124.37 -341.06,124.37zm1273.53 0c-109.5,0 -208.34,-24.24 -296.45,-72.77 -88.15,-48.49 -157.26,-115.25 -207.32,-200.25 -50.06,-85 -75.07,-180.69 -75.07,-287.08 0,-106.39 25.01,-202.08 75.07,-287.08 50.06,-85 119.42,-151.76 208.09,-200.25 88.66,-48.53 187.72,-72.77 297.26,-72.77 85.51,0 163.73,14.36 234.67,43.03 70.9,28.67 131.4,71.19 181.46,127.52l-101.7 98.55c-82.4,-86.57 -185.12,-129.86 -308.17,-129.86 -81.38,0 -154.91,18.28 -220.61,54.79 -65.7,36.47 -117.08,86.79 -154.1,150.95 -37.02,64.16 -55.52,135.87 -55.52,215.12 0,79.25 18.49,150.95 55.52,215.12 37.02,64.16 88.41,114.48 154.1,150.95 65.7,36.51 139.24,54.79 220.61,54.79 122.02,0 224.74,-43.8 308.17,-131.44l101.7 98.59c-50.06,56.28 -110.82,99.06 -182.27,128.29 -71.45,29.18 -149.93,43.8 -235.44,43.8zm1312.59 -286.31l-581.99 0 -120.49 273.78 -161.13 0 495.97 -1095.14 154.87 0 497.51 1095.14 -164.29 0 -120.45 -273.78zm-54.75 -125.18l-236.25 -536.62 -236.25 536.62 472.5 0zm664.9 -560.05l-375.48 0 0 -136.13 905.84 0 0 136.13 -375.48 0 0 959.01 -154.87 0 0 -959.01zm700.91 -136.13l156.45 0 0 1095.14 -156.45 0 0 -1095.14zm979.33 1107.66c-110.56,0 -210.17,-24.24 -298.79,-72.77 -88.66,-48.49 -158.28,-115.5 -208.9,-201.01 -50.57,-85.55 -75.84,-180.99 -75.84,-286.31 0,-105.32 25.27,-200.76 75.84,-286.31 50.62,-85.51 120.23,-152.53 208.9,-201.01 88.62,-48.53 188.23,-72.77 298.79,-72.77 109.54,0 208.6,24.24 297.26,72.77 88.66,48.49 158.02,115.25 208.09,200.25 50.06,85 75.07,180.69 75.07,287.08 0,106.39 -25.01,202.08 -75.07,287.08 -50.06,85 -119.42,151.76 -208.09,200.25 -88.66,48.53 -187.72,72.77 -297.26,72.77zm0 -139.24c80.31,0 152.53,-18.28 216.69,-54.79 64.12,-36.47 114.74,-86.79 151.76,-150.95 37.02,-64.16 55.52,-135.87 55.52,-215.12 0,-79.25 -18.49,-150.95 -55.52,-215.12 -37.02,-64.16 -87.64,-114.48 -151.76,-150.95 -64.16,-36.51 -136.38,-54.79 -216.69,-54.79 -80.31,0 -153.04,18.28 -218.23,54.79 -65.19,36.47 -116.31,86.79 -153.34,150.95 -37.02,64.16 -55.52,135.87 -55.52,215.12 0,79.25 18.49,150.95 55.52,215.12 37.02,64.16 88.15,114.48 153.34,150.95 65.19,36.51 137.91,54.79 218.23,54.79zm1761.62 -968.43l0 1095.14 -128.29 0 -657.06 -816.67 0 816.67 -156.45 0 0 -1095.14 128.29 0 657.06 816.67 0 -816.67 156.45 0zm344.21 890.2c29.18,0 53.43,10.14 72.73,30.51 19.3,20.32 28.97,45.63 28.97,75.88 0,15.64 -1.83,30.76 -5.5,45.38 -3.66,14.57 -10.69,37.02 -21.13,67.23l-73.49 217.5 -98.59 0 57.9 -233.14c-19.81,-7.29 -35.75,-19.56 -47.72,-36.77 -12.01,-17.21 -17.98,-37.28 -17.98,-60.2 0,-31.32 9.88,-56.88 29.7,-76.69 19.81,-19.81 44.86,-29.7 75.11,-29.7zm-26054.98 940.26l156.45 0 0 1095.14 -156.45 0 0 -1095.14zm1426.78 0l0 1095.14 -128.29 0 -657.06 -816.67 0 816.67 -156.45 0 0 -1095.14 128.29 0 657.06 816.67 0 -816.67 156.45 0zm1270.37 0l0 1095.14 -128.29 0 -657.06 -816.67 0 816.67 -156.45 0 0 -1095.14 128.29 0 657.06 816.67 0 -816.67 156.45 0zm822.93 1107.66c-110.56,0 -210.17,-24.24 -298.79,-72.77 -88.66,-48.49 -158.28,-115.5 -208.9,-201.01 -50.57,-85.55 -75.84,-180.99 -75.84,-286.31 0,-105.32 25.27,-200.76 75.84,-286.31 50.62,-85.51 120.23,-152.53 208.9,-201.01 88.62,-48.53 188.23,-72.77 298.79,-72.77 109.54,0 208.6,24.24 297.26,72.77 88.66,48.49 158.02,115.25 208.09,200.25 50.06,85 75.07,180.69 75.07,287.08 0,106.39 -25.01,202.08 -75.07,287.08 -50.06,85 -119.42,151.76 -208.09,200.25 -88.66,48.53 -187.72,72.77 -297.26,72.77zm0 -139.24c80.31,0 152.53,-18.28 216.69,-54.79 64.12,-36.47 114.74,-86.79 151.76,-150.95 37.02,-64.16 55.52,-135.87 55.52,-215.12 0,-79.25 -18.49,-150.95 -55.52,-215.12 -37.02,-64.16 -87.64,-114.48 -151.76,-150.95 -64.16,-36.51 -136.38,-54.79 -216.69,-54.79 -80.31,0 -153.04,18.28 -218.23,54.79 -65.19,36.47 -116.31,86.79 -153.34,150.95 -37.02,64.16 -55.52,135.87 -55.52,215.12 0,79.25 18.49,150.95 55.52,215.12 37.02,64.16 88.15,114.48 153.34,150.95 65.19,36.51 137.91,54.79 218.23,54.79zm1736.56 -968.43l-480.29 1095.14 -154.87 0 -481.87 -1095.14 168.97 0 394.23 899.58 397.38 -899.58 156.45 0zm802.61 821.35l-581.99 0 -120.49 273.78 -161.13 0 495.97 -1095.14 154.87 0 497.51 1095.14 -164.29 0 -120.45 -273.78zm-54.75 -125.18l-236.25 -536.62 -236.25 536.62 472.5 0zm664.9 -560.05l-375.48 0 0 -136.13 905.84 0 0 136.13 -375.48 0 0 959.01 -154.87 0 0 -959.01zm700.91 -136.13l156.45 0 0 1095.14 -156.45 0 0 -1095.14zm979.33 1107.66c-110.56,0 -210.17,-24.24 -298.79,-72.77 -88.66,-48.49 -158.28,-115.5 -208.9,-201.01 -50.57,-85.55 -75.84,-180.99 -75.84,-286.31 0,-105.32 25.27,-200.76 75.84,-286.31 50.62,-85.51 120.23,-152.53 208.9,-201.01 88.62,-48.53 188.23,-72.77 298.79,-72.77 109.54,0 208.6,24.24 297.26,72.77 88.66,48.49 158.02,115.25 208.09,200.25 50.06,85 75.07,180.69 75.07,287.08 0,106.39 -25.01,202.08 -75.07,287.08 -50.06,85 -119.42,151.76 -208.09,200.25 -88.66,48.53 -187.72,72.77 -297.26,72.77zm0 -139.24c80.31,0 152.53,-18.28 216.69,-54.79 64.12,-36.47 114.74,-86.79 151.76,-150.95 37.02,-64.16 55.52,-135.87 55.52,-215.12 0,-79.25 -18.49,-150.95 -55.52,-215.12 -37.02,-64.16 -87.64,-114.48 -151.76,-150.95 -64.16,-36.51 -136.38,-54.79 -216.69,-54.79 -80.31,0 -153.04,18.28 -218.23,54.79 -65.19,36.47 -116.31,86.79 -153.34,150.95 -37.02,64.16 -55.52,135.87 -55.52,215.12 0,79.25 18.49,150.95 55.52,215.12 37.02,64.16 88.15,114.48 153.34,150.95 65.19,36.51 137.91,54.79 218.23,54.79zm1761.62 -968.43l0 1095.14 -128.29 0 -657.06 -816.67 0 816.67 -156.45 0 0 -1095.14 128.29 0 657.06 816.67 0 -816.67 156.45 0zm1447.19 821.35l-581.99 0 -120.49 273.78 -161.13 0 495.97 -1095.14 154.87 0 497.51 1095.14 -164.29 0 -120.45 -273.78zm-54.75 -125.18l-236.25 -536.62 -236.25 536.62 472.5 0zm1443.99 -696.18l0 1095.14 -128.29 0 -657.06 -816.67 0 816.67 -156.45 0 0 -1095.14 128.29 0 657.06 816.67 0 -816.67 156.45 0zm328.57 0l461.5 0c115.76,0 218.52,22.96 308.21,68.85 89.68,45.89 159.3,110.26 208.85,193.22 49.55,82.91 74.3,178.09 74.3,285.5 0,107.41 -24.75,202.59 -74.3,285.5 -49.55,82.95 -119.17,147.33 -208.85,193.22 -89.68,45.89 -192.45,68.85 -308.21,68.85l-461.5 0 0 -1095.14zm452.13 959.01c88.62,0 166.59,-17.21 233.86,-51.6 67.27,-34.43 119.17,-82.65 155.68,-144.73 36.51,-62.08 54.75,-133.78 54.75,-215.12 0,-81.33 -18.24,-153.04 -54.75,-215.12 -36.51,-62.08 -88.41,-110.31 -155.68,-144.73 -67.27,-34.38 -145.24,-51.6 -233.86,-51.6l-295.68 0 0 822.89 295.68 0zm1261 -959.01l156.45 0 0 1095.14 -156.45 0 0 -1095.14zm1500.32 1095.14l-1.58 -797.88 -395.81 664.9 -71.96 0 -395.81 -660.22 0 793.19 -150.18 0 0 -1095.14 128.29 0 456.82 769.71 450.55 -769.71 128.29 0 1.58 1095.14 -150.18 0zm905.84 -1095.14c141.83,0 253.46,33.91 334.8,101.7 81.38,67.79 122.02,161.13 122.02,280.05 0,118.87 -40.65,212.22 -122.02,280.05 -81.33,67.79 -192.96,101.66 -334.8,101.66l-270.63 0 0 331.69 -156.45 0 0 -1095.14 427.08 0zm-4.69 627.37c99.1,0 174.68,-21.13 226.83,-63.35 52.15,-42.26 78.22,-103.02 78.22,-182.27 0,-79.29 -26.07,-140.04 -78.22,-182.27 -52.15,-42.26 -127.73,-63.35 -226.83,-63.35l-265.94 0 0 491.24 265.94 0zm1334.49 193.98l-581.99 0 -120.49 273.78 -161.13 0 495.97 -1095.14 154.87 0 497.51 1095.14 -164.29 0 -120.45 -273.78zm-54.75 -125.18l-236.25 -536.62 -236.25 536.62 472.5 0zm976.22 411.49c-109.5,0 -208.34,-24.24 -296.45,-72.77 -88.15,-48.49 -157.26,-115.25 -207.32,-200.25 -50.06,-85 -75.07,-180.69 -75.07,-287.08 0,-106.39 25.01,-202.08 75.07,-287.08 50.06,-85 119.42,-151.76 208.09,-200.25 88.66,-48.53 187.72,-72.77 297.26,-72.77 85.51,0 163.73,14.36 234.67,43.03 70.9,28.67 131.4,71.19 181.46,127.52l-101.7 98.55c-82.4,-86.57 -185.12,-129.86 -308.17,-129.86 -81.38,0 -154.91,18.28 -220.61,54.79 -65.7,36.47 -117.08,86.79 -154.1,150.95 -37.02,64.16 -55.52,135.87 -55.52,215.12 0,79.25 18.49,150.95 55.52,215.12 37.02,64.16 88.41,114.48 154.1,150.95 65.7,36.51 139.24,54.79 220.61,54.79 122.02,0 224.74,-43.8 308.17,-131.44l101.7 98.59c-50.06,56.28 -110.82,99.06 -182.27,128.29 -71.45,29.18 -149.93,43.8 -235.44,43.8zm846.4 -971.54l-375.48 0 0 -136.13 905.84 0 0 136.13 -375.48 0 0 959.01 -154.87 0 0 -959.01z"/>
   </g>
   <g>
    <g>
     <path class="fil1" d="M12524.74 9148.88c578.37,1303.01 -958.2,2406.79 -9.5,4399.37 616.89,1295.6 1330.23,1229.81 1897.83,2025.6 1209.19,1695.28 -1167.14,3648.07 -2373.9,1873.63 -554.85,-815.86 -188.06,-1415.4 53.68,-2215.45 808.57,-2675.68 -1814.57,-5190.69 -4108.46,-4203.64 -1263.77,543.86 -1206.25,1401.73 -1877.5,2035.53 -1585.78,1497.21 -3482.93,-1252.22 -1849.72,-2551.1 1304.16,-1037.19 2295.42,1227.98 4417.1,-138.98 1042.09,-671.47 999.87,-1562.99 1762.77,-2038.47 713.35,-444.55 1662.3,-145.03 2087.72,813.51z"/>
     <path class="fil1" d="M6238.92 2341.31c76.31,636.91 -338.12,1059.47 -142.05,1699.84 240.89,786.54 1089.68,883.47 1563.2,853.26 525.2,-33.45 1433.34,-117.25 1153.76,861.36 -556.3,1947.25 -3340.33,963.78 -4998.32,3512.37 -419.32,644.62 -386.01,1063.82 -1184.22,1595.97 -1661.49,1107.62 -2668.43,-535.55 -716.88,-1675.85 337.52,-197.22 4061,-806.78 4437.85,-3575.08 93.26,-684.89 -323.8,-1252.18 -1034.51,-1382.13 -457.88,-83.72 -1396.78,231.9 -1696.81,-336.33 -463.76,-878.32 1706.87,-2753.05 2617.99,-1553.4z"/>
     <path class="fil1" d="M17089.43 1972.64c588.09,1122.66 -568.19,1625.11 -1396.91,1465.21 -830.04,-160.11 -999.23,-798.09 -2462.1,-1125.04 -1003.7,-224.32 -1427.97,-72.39 -2576.83,621.53 -726.64,438.88 -1860.5,379.32 -2427.97,-628.94 -606.45,-1077.45 710.53,-1613.22 1448.68,-1452.43 735.03,160.15 1433.51,901.11 2462.9,1117.97 876.48,184.65 1531.2,93.43 2535.12,-592.01 770.4,-525.97 1920.24,-354.73 2417.1,593.71z"/>
     <path class="fil1" d="M14357.59 7138.07c-1220.86,-146.82 -2384,-2027.09 -1229.64,-2757.31 1110.9,-15.21 1666.09,1459.12 2970.68,1082.61 883.04,-254.91 593.71,-982.02 1182.31,-1246.85 846.49,-380.85 2397.89,1828.12 1510.8,2568.74 -826.72,690.21 -1815.21,-1346.08 -3086.65,-983.25 -820.16,234.03 -679.13,910.44 -1347.49,1336.07z"/>
     <path class="fil1" d="M15646.63 19816.83c394.53,1349.41 -1750.5,2290.35 -2204.33,846.62 -391.46,-1245.28 1793.57,-2251.62 2204.33,-846.62z"/>
     <path class="fil1" d="M9139.08 15576.5c484.21,1288.35 -1515.74,1838.95 -2059.73,418.26 -486.94,-1271.65 1533.38,-1818.62 2059.73,-418.26z"/>
     <path class="fil1" d="M11312.06 4988.4c422.82,1226.45 -1485.19,1917.64 -1945.97,661.28 -401.69,-1095.09 1504.96,-1940.52 1945.97,-661.28z"/>
     <path class="fil1" d="M20635.54 9014.21c177.75,1089.26 -1596.52,936.09 -1786.11,-87 -184.87,-997.48 1637.72,-822.5 1786.11,87z"/>
    </g>
    <g>
     <path class="fil1" d="M2979.58 12902.95c255.17,940.9 -871.41,1805.54 -1225.81,764.39 -282.52,-830.09 899.87,-1966.38 1225.81,-764.39z"/>
     <g>
      <path class="fil2" d="M22935.3 7056.09c-207.15,-372.29 -492.69,-608.62 -637.72,-527.88 -145.03,80.7 -94.67,447.91 112.52,820.2 207.15,372.25 492.69,608.58 637.72,527.88 145.03,-80.74 94.67,-447.91 -112.52,-820.2z"/>
      <path class="fil2" d="M20244.84 3528.56c-441.61,-290.31 -891.31,-386.18 -1004.39,-214.14 -113.12,172.08 153.21,546.89 594.82,837.2 441.61,290.31 891.31,386.14 1004.39,214.09 113.12,-172.04 -153.21,-546.84 -594.82,-837.16z"/>
      <path class="fil2" d="M14481.06 452.86c-459.08,-93.82 -860.89,-24.92 -897.45,153.93 -36.56,178.86 305.95,399.94 765.03,493.8 459.08,93.86 860.89,24.92 897.45,-153.93 36.56,-178.86 -305.95,-399.94 -765.03,-493.8z"/>
      <path class="fil2" d="M8771.31 72.73c-496.06,130.84 -856.84,393.59 -805.89,586.85 51,193.26 494.44,243.87 990.5,113.03 496.06,-130.84 856.84,-393.59 805.89,-586.85 -51,-193.26 -494.44,-243.87 -990.5,-113.03z"/>
      <path class="fil2" d="M1993.77 6286.98c-236.97,454.99 -285.33,898.68 -108.05,991.01 177.24,92.33 513.06,-201.7 750.03,-656.68 236.97,-455.03 285.37,-898.72 108.09,-991.05 -177.28,-92.33 -513.1,201.7 -750.07,656.72z"/>
      <path class="fil2" d="M16.15 12711.61c-59.95,509.52 52.4,941.46 250.9,964.81 198.5,23.35 408.03,-370.75 467.94,-880.28 59.9,-509.48 -52.45,-941.46 -250.95,-964.81 -198.5,-23.35 -407.99,370.75 -467.9,880.28z"/>
     </g>
    </g>
   </g>
  </g>
 </g>
</svg>
