<?xml version="1.0" encoding="UTF-8"?>
<!DOCTYPE svg PUBLIC "-//W3C//DTD SVG 1.1//EN" "http://www.w3.org/Graphics/SVG/1.1/DTD/svg11.dtd">
<!-- Creator: CorelDRAW 2018 (64-Bit) -->
<svg xmlns="http://www.w3.org/2000/svg" xml:space="preserve" width="59.8678mm" height="25.9717mm" version="1.1" style="shape-rendering:geometricPrecision; text-rendering:geometricPrecision; image-rendering:optimizeQuality; fill-rule:evenodd; clip-rule:evenodd"
viewBox="0 0 1625.54 705.19"
 xmlns:xlink="http://www.w3.org/1999/xlink">
 <defs>
  <style type="text/css">
   <![CDATA[
    .fil1 {fill:white}
    .fil0 {fill:white;fill-rule:nonzero}
   ]]>
  </style>
 </defs>
 <g id="Layer_x0020_1">
  <metadata id="CorelCorpID_0Corel-Layer"/>
  <g id="_2705608200640">
   <g>
    <g>
     <path class="fil0" d="M580.95 412.28c-4.34,0 -7.98,0.61 -10.92,1.82 -2.94,1.21 -5.33,2.84 -7.18,4.88 -1.85,2.04 -3.23,4.41 -4.12,7.09 -0.89,2.68 -1.53,5.49 -1.92,8.43 -0.26,1.66 -0.42,3.96 -0.48,6.9 -0.07,2.94 -0.1,5.97 -0.1,9.1 0,3.13 0.06,6.19 0.19,9.19 0.13,3 0.26,5.33 0.38,6.99 0.26,2.94 0.86,5.75 1.82,8.43 0.96,2.68 2.36,5.04 4.21,7.09 1.85,2.04 4.28,3.67 7.28,4.88 3,1.21 6.61,1.82 10.82,1.82 3.32,0 6.45,-0.38 9.39,-1.15 2.94,-0.77 5.49,-1.98 7.66,-3.64 2.17,-1.66 3.89,-3.83 5.17,-6.51 1.28,-2.68 1.91,-5.94 1.91,-9.77l-16.09 0c-1.41,0 -2.62,-0.51 -3.64,-1.53 -1.02,-1.02 -1.53,-2.23 -1.53,-3.64l0 -20.31c0,-1.4 0.51,-2.62 1.53,-3.64 1.02,-1.02 2.23,-1.53 3.64,-1.53l46.36 0c1.41,0 2.62,0.51 3.64,1.53 1.02,1.02 1.53,2.23 1.53,3.64l0 24.52c0,8.17 -1.53,15.52 -4.6,22.03 -3.07,6.51 -7.28,12.04 -12.64,16.57 -5.36,4.53 -11.65,8.01 -18.87,10.44 -7.21,2.43 -15.04,3.64 -23.46,3.64 -9.2,0 -17.4,-1.37 -24.62,-4.12 -7.22,-2.75 -13.38,-6.48 -18.49,-11.21 -5.11,-4.72 -9.04,-10.25 -11.78,-16.57 -2.75,-6.32 -4.31,-13 -4.69,-20.02 -0.26,-5.23 -0.38,-10.86 -0.38,-16.86 0,-6 0.13,-11.75 0.38,-17.24 0.26,-7.02 1.79,-13.7 4.6,-20.02 2.81,-6.32 6.74,-11.85 11.78,-16.57 5.04,-4.72 11.21,-8.46 18.49,-11.21 7.28,-2.75 15.51,-4.12 24.71,-4.12 8.94,0 16.98,1.31 24.14,3.93 7.15,2.62 13.22,5.94 18.2,9.96 4.98,4.02 8.88,8.43 11.69,13.22 2.81,4.79 4.34,9.35 4.6,13.7 0.13,1.15 -0.26,2.14 -1.15,2.97 -0.89,0.83 -1.92,1.24 -3.07,1.24l-25.48 0c-1.92,0 -3.42,-0.57 -4.5,-1.72 -1.09,-1.15 -2.14,-2.3 -3.16,-3.45 -1.79,-2.3 -4.21,-4.4 -7.28,-6.32 -3.07,-1.91 -7.73,-2.87 -13.98,-2.87zm177.19 74.71c1.4,0 2.62,0.51 3.64,1.53 1.02,1.02 1.53,2.23 1.53,3.64l0 20.3c0,1.4 -0.51,2.62 -1.53,3.64 -1.02,1.02 -2.23,1.53 -3.64,1.53l-90.8 0c-1.4,0 -2.62,-0.51 -3.64,-1.53 -1.02,-1.02 -1.53,-2.24 -1.53,-3.64l0 -123.75c0,-1.4 0.51,-2.62 1.53,-3.64 1.02,-1.02 2.23,-1.53 3.64,-1.53l89.27 0c1.41,0 2.62,0.51 3.64,1.53 1.02,1.02 1.53,2.23 1.53,3.64l0 20.31c0,1.4 -0.51,2.62 -1.53,3.64 -1.02,1.02 -2.23,1.53 -3.64,1.53l-59 0 0 20.69 54.78 0c1.4,0 2.62,0.51 3.64,1.53 1.02,1.02 1.53,2.23 1.53,3.64l0 20.3c0,1.41 -0.51,2.62 -1.53,3.64 -1.02,1.02 -2.24,1.53 -3.64,1.53l-54.78 0 0 21.46 60.53 0zm114.36 30.65c-2.17,0 -3.93,-0.58 -5.27,-1.72 -1.34,-1.15 -2.2,-2.04 -2.58,-2.68l-43.87 -65.51 0 64.75c0,1.4 -0.51,2.62 -1.53,3.64 -1.02,1.02 -2.23,1.53 -3.64,1.53l-25.1 0c-1.4,0 -2.62,-0.51 -3.64,-1.53 -1.02,-1.02 -1.53,-2.24 -1.53,-3.64l0 -123.75c0,-1.4 0.51,-2.62 1.53,-3.64 1.02,-1.02 2.23,-1.53 3.64,-1.53l19.92 0c2.17,0 3.93,0.58 5.27,1.72 1.34,1.15 2.2,2.04 2.58,2.68l43.87 65.51 0 -64.75c0,-1.4 0.51,-2.62 1.53,-3.64 1.02,-1.02 2.23,-1.53 3.64,-1.53l25.1 0c1.4,0 2.62,0.51 3.64,1.53 1.02,1.02 1.53,2.23 1.53,3.64l0 123.75c0,1.4 -0.51,2.62 -1.53,3.64 -1.02,1.02 -2.23,1.53 -3.64,1.53l-19.92 0z"/>
     <path class="fil0" d="M1020.01 412.28c-4.34,0 -7.98,0.61 -10.92,1.82 -2.94,1.21 -5.33,2.84 -7.18,4.88 -1.85,2.04 -3.23,4.41 -4.12,7.09 -0.89,2.68 -1.53,5.49 -1.92,8.43 -0.26,1.66 -0.42,3.96 -0.48,6.9 -0.07,2.94 -0.1,5.97 -0.1,9.1 0,3.13 0.06,6.19 0.19,9.19 0.13,3 0.26,5.33 0.38,6.99 0.26,2.94 0.86,5.75 1.82,8.43 0.96,2.68 2.36,5.04 4.21,7.09 1.85,2.04 4.28,3.67 7.28,4.88 3,1.21 6.61,1.82 10.82,1.82 3.32,0 6.45,-0.38 9.39,-1.15 2.94,-0.77 5.49,-1.98 7.66,-3.64 2.17,-1.66 3.89,-3.83 5.17,-6.51 1.28,-2.68 1.91,-5.94 1.91,-9.77l-16.09 0c-1.41,0 -2.62,-0.51 -3.64,-1.53 -1.02,-1.02 -1.53,-2.23 -1.53,-3.64l0 -20.31c0,-1.4 0.51,-2.62 1.53,-3.64 1.02,-1.02 2.23,-1.53 3.64,-1.53l46.36 0c1.41,0 2.62,0.51 3.64,1.53 1.02,1.02 1.53,2.23 1.53,3.64l0 24.52c0,8.17 -1.53,15.52 -4.6,22.03 -3.07,6.51 -7.28,12.04 -12.64,16.57 -5.36,4.53 -11.65,8.01 -18.87,10.44 -7.21,2.43 -15.04,3.64 -23.46,3.64 -9.2,0 -17.4,-1.37 -24.62,-4.12 -7.22,-2.75 -13.38,-6.48 -18.49,-11.21 -5.11,-4.72 -9.04,-10.25 -11.78,-16.57 -2.75,-6.32 -4.31,-13 -4.69,-20.02 -0.26,-5.23 -0.38,-10.86 -0.38,-16.86 0,-6 0.13,-11.75 0.38,-17.24 0.26,-7.02 1.79,-13.7 4.6,-20.02 2.81,-6.32 6.74,-11.85 11.78,-16.57 5.04,-4.72 11.21,-8.46 18.49,-11.21 7.28,-2.75 15.51,-4.12 24.71,-4.12 8.94,0 16.98,1.31 24.14,3.93 7.15,2.62 13.22,5.94 18.2,9.96 4.98,4.02 8.88,8.43 11.69,13.22 2.81,4.79 4.34,9.35 4.6,13.7 0.13,1.15 -0.26,2.14 -1.15,2.97 -0.89,0.83 -1.92,1.24 -3.07,1.24l-25.48 0c-1.92,0 -3.42,-0.57 -4.5,-1.72 -1.09,-1.15 -2.14,-2.3 -3.16,-3.45 -1.79,-2.3 -4.21,-4.4 -7.28,-6.32 -3.07,-1.91 -7.73,-2.87 -13.98,-2.87zm138.31 -28.74c8.43,0 15.96,0.9 22.6,2.68 6.64,1.79 12.29,4.47 16.95,8.05 4.66,3.58 8.24,8.14 10.73,13.7 2.49,5.56 3.74,12.04 3.74,19.44 0,9.58 -1.98,17.53 -5.94,23.85 -3.96,6.32 -9.58,11.14 -16.86,14.46l23.75 45.59c0.38,0.77 0.58,1.47 0.58,2.11 0,1.15 -0.42,2.14 -1.25,2.97 -0.83,0.83 -1.82,1.25 -2.97,1.25l-26.05 0c-2.56,0 -4.37,-0.58 -5.46,-1.72 -1.09,-1.15 -1.95,-2.3 -2.59,-3.45l-21.26 -40.99 -17.62 0 0 40.99c0,1.4 -0.51,2.62 -1.53,3.64 -1.02,1.02 -2.23,1.53 -3.64,1.53l-25.1 0c-1.4,0 -2.62,-0.51 -3.64,-1.53 -1.02,-1.02 -1.53,-2.24 -1.53,-3.64l0 -123.75c0,-1.4 0.51,-2.62 1.53,-3.64 1.02,-1.02 2.23,-1.53 3.64,-1.53l51.91 0zm-21.65 58.04l21.65 0c5.36,0 9.8,-1.02 13.31,-3.07 3.51,-2.04 5.27,-5.75 5.27,-11.11 0,-5.36 -1.76,-9.07 -5.27,-11.11 -3.51,-2.04 -7.95,-3.07 -13.31,-3.07l-21.65 0 0 28.35zm93.29 -8.05c0.38,-7.15 1.95,-13.89 4.69,-20.21 2.75,-6.32 6.64,-11.81 11.69,-16.47 5.04,-4.66 11.17,-8.37 18.39,-11.11 7.21,-2.75 15.55,-4.12 25,-4.12 9.32,0 17.62,1.37 24.9,4.12 7.28,2.75 13.44,6.45 18.49,11.11 5.04,4.66 8.94,10.15 11.68,16.47 2.75,6.32 4.31,13.06 4.69,20.21 0.26,5.49 0.38,11.24 0.38,17.24 0,6 -0.13,11.62 -0.38,16.86 -0.38,7.15 -1.95,13.89 -4.69,20.21 -2.75,6.32 -6.64,11.85 -11.68,16.57 -5.04,4.72 -11.21,8.43 -18.49,11.11 -7.28,2.68 -15.58,4.02 -24.9,4.02 -9.45,0 -17.78,-1.34 -25,-4.02 -7.22,-2.68 -13.35,-6.39 -18.39,-11.11 -5.04,-4.72 -8.94,-10.25 -11.69,-16.57 -2.75,-6.32 -4.31,-13.06 -4.69,-20.21 -0.26,-5.23 -0.38,-10.86 -0.38,-16.86 0,-6 0.13,-11.75 0.38,-17.24zm84.1 33.14c0.13,-2.3 0.26,-4.85 0.38,-7.66 0.13,-2.81 0.19,-5.68 0.19,-8.62 0,-2.94 -0.06,-5.78 -0.19,-8.53 -0.13,-2.75 -0.26,-5.21 -0.38,-7.37 -0.26,-3.19 -0.93,-6.13 -2.01,-8.81 -1.09,-2.68 -2.62,-5.01 -4.6,-6.99 -1.98,-1.98 -4.44,-3.54 -7.37,-4.69 -2.94,-1.15 -6.39,-1.72 -10.34,-1.72 -3.96,0 -7.41,0.58 -10.34,1.72 -2.94,1.15 -5.4,2.71 -7.37,4.69 -1.98,1.98 -3.51,4.31 -4.6,6.99 -1.09,2.68 -1.76,5.62 -2.01,8.81 -0.26,2.17 -0.42,4.63 -0.48,7.37 -0.06,2.75 -0.1,5.59 -0.1,8.53 0,2.94 0.03,5.81 0.1,8.62 0.07,2.81 0.23,5.37 0.48,7.66 0.51,6.39 2.71,11.69 6.61,15.9 3.89,4.21 9.8,6.32 17.72,6.32 7.92,0 13.79,-2.11 17.62,-6.32 3.83,-4.21 6.07,-9.51 6.7,-15.9zm167.81 -83.14c1.4,0 2.62,0.51 3.64,1.53 1.02,1.02 1.53,2.23 1.53,3.64l0 76.43c0,8.81 -1.41,16.6 -4.21,23.37 -2.81,6.77 -6.8,12.45 -11.97,17.05 -5.17,4.6 -11.33,8.08 -18.49,10.44 -7.15,2.36 -15.01,3.55 -23.56,3.55 -8.68,0 -16.6,-1.18 -23.75,-3.55 -7.15,-2.36 -13.28,-5.84 -18.39,-10.44 -5.11,-4.6 -9.07,-10.28 -11.88,-17.05 -2.81,-6.77 -4.21,-14.56 -4.21,-23.37l0 -76.43c0,-1.4 0.51,-2.62 1.53,-3.64 1.02,-1.02 2.23,-1.53 3.64,-1.53l25.09 0c1.4,0 2.62,0.51 3.64,1.53 1.02,1.02 1.53,2.23 1.53,3.64l0 75.67c0,7.66 1.88,13.66 5.65,18.01 3.77,4.34 9.48,6.51 17.14,6.51 7.66,0 13.38,-2.17 17.15,-6.51 3.77,-4.34 5.65,-10.34 5.65,-18.01l0 -75.67c0,-1.4 0.51,-2.62 1.53,-3.64 1.02,-1.02 2.23,-1.53 3.64,-1.53l25.09 0zm90.61 0c8.17,0 15.52,0.93 22.03,2.78 6.51,1.85 12.07,4.66 16.67,8.43 4.6,3.77 8.14,8.46 10.63,14.08 2.49,5.62 3.74,12.13 3.74,19.54 0,7.53 -1.25,14.11 -3.74,19.73 -2.49,5.62 -6.03,10.28 -10.63,13.98 -4.6,3.7 -10.15,6.51 -16.67,8.43 -6.51,1.92 -13.86,2.88 -22.03,2.88l-24.52 0 0 39.08c0,1.4 -0.51,2.62 -1.53,3.64 -1.02,1.02 -2.23,1.53 -3.64,1.53l-25.1 0c-1.4,0 -2.62,-0.51 -3.64,-1.53 -1.02,-1.02 -1.53,-2.24 -1.53,-3.64l0 -123.75c0,-1.4 0.51,-2.62 1.53,-3.64 1.02,-1.02 2.23,-1.53 3.64,-1.53l54.79 0zm-24.52 59.96l23.56 0c5.37,0 9.8,-1.18 13.32,-3.54 3.51,-2.36 5.27,-6.23 5.27,-11.59 0,-5.36 -1.76,-9.23 -5.27,-11.59 -3.51,-2.36 -7.95,-3.54 -13.32,-3.54l-23.56 0 0 30.27z"/>
    </g>
    <path class="fil0" d="M582.06 587.65l-19.19 0 -3.97 9.03 -5.31 0 16.35 -36.11 5.11 0 16.41 36.11 -5.42 0 -3.97 -9.03zm-1.81 -4.12l-7.79 -17.7 -7.79 17.7 15.58 0zm55.45 -5.11l4.95 0 0 14.08c-1.79,1.48 -3.87,2.61 -6.24,3.4 -2.37,0.79 -4.85,1.19 -7.43,1.19 -3.64,0 -6.93,-0.8 -9.85,-2.4 -2.92,-1.6 -5.22,-3.8 -6.89,-6.6 -1.67,-2.8 -2.5,-5.96 -2.5,-9.47 0,-3.51 0.83,-6.67 2.5,-9.49 1.67,-2.82 3.97,-5.02 6.91,-6.6 2.94,-1.58 6.25,-2.37 9.93,-2.37 2.89,0 5.51,0.48 7.87,1.42 2.36,0.94 4.36,2.33 6.01,4.15l-3.2 3.2c-2.89,-2.79 -6.38,-4.18 -10.47,-4.18 -2.75,0 -5.22,0.59 -7.4,1.78 -2.18,1.19 -3.89,2.84 -5.13,4.95 -1.24,2.12 -1.86,4.5 -1.86,7.15 0,2.61 0.62,4.98 1.86,7.09 1.24,2.12 2.95,3.77 5.13,4.98 2.18,1.21 4.63,1.81 7.35,1.81 3.23,0 6.05,-0.77 8.46,-2.32l0 -11.76zm14.8 -17.85l5.16 0 0 31.62 19.55 0 0 4.49 -24.71 0 0 -36.11zm46.27 36.52c-3.64,0 -6.93,-0.8 -9.85,-2.4 -2.92,-1.6 -5.22,-3.81 -6.89,-6.63 -1.67,-2.82 -2.5,-5.97 -2.5,-9.44 0,-3.47 0.83,-6.62 2.5,-9.44 1.67,-2.82 3.96,-5.03 6.89,-6.63 2.92,-1.6 6.21,-2.4 9.85,-2.4 3.61,0 6.88,0.8 9.8,2.4 2.92,1.6 5.21,3.8 6.86,6.6 1.65,2.8 2.47,5.96 2.47,9.47 0,3.51 -0.83,6.66 -2.47,9.47 -1.65,2.8 -3.94,5 -6.86,6.6 -2.92,1.6 -6.19,2.4 -9.8,2.4zm0 -4.59c2.65,0 5.03,-0.6 7.14,-1.81 2.12,-1.2 3.79,-2.86 5,-4.98 1.22,-2.12 1.83,-4.48 1.83,-7.09 0,-2.61 -0.61,-4.98 -1.83,-7.09 -1.22,-2.11 -2.89,-3.77 -5,-4.98 -2.12,-1.2 -4.5,-1.81 -7.14,-1.81 -2.65,0 -5.04,0.6 -7.2,1.81 -2.15,1.2 -3.83,2.86 -5.06,4.98 -1.22,2.12 -1.83,4.48 -1.83,7.09 0,2.61 0.61,4.98 1.83,7.09 1.22,2.12 2.91,3.77 5.06,4.98 2.15,1.21 4.55,1.81 7.2,1.81zm51.33 -14.55c2.1,0.58 3.75,1.64 4.95,3.17 1.2,1.53 1.81,3.46 1.81,5.8 0,3.13 -1.18,5.54 -3.54,7.22 -2.35,1.69 -5.79,2.53 -10.29,2.53l-17.23 0 0 -36.11 16.2 0c4.13,0 7.32,0.83 9.57,2.48 2.25,1.65 3.38,3.94 3.38,6.86 0,1.89 -0.44,3.52 -1.32,4.9 -0.88,1.37 -2.06,2.42 -3.53,3.15zm-19.14 -13.21l0 11.56 10.57 0c2.65,0 4.69,-0.49 6.11,-1.47 1.43,-0.98 2.14,-2.41 2.14,-4.31 0,-1.89 -0.71,-3.33 -2.14,-4.31 -1.43,-0.98 -3.46,-1.47 -6.11,-1.47l-10.57 0zm11.86 27.75c2.92,0 5.12,-0.48 6.6,-1.44 1.48,-0.96 2.22,-2.48 2.22,-4.54 0,-4.02 -2.94,-6.03 -8.82,-6.03l-11.86 0 0 12.02 11.86 0zm45.03 -4.85l-19.19 0 -3.97 9.03 -5.31 0 16.35 -36.11 5.11 0 16.41 36.11 -5.42 0 -3.97 -9.03zm-1.81 -4.12l-7.79 -17.7 -7.79 17.7 15.58 0zm16.56 -22.96l5.16 0 0 31.62 19.55 0 0 4.49 -24.71 0 0 -36.11zm75.57 0l0 36.11 -4.23 0 -21.66 -26.93 0 26.93 -5.16 0 0 -36.11 4.23 0 21.66 26.93 0 -26.93 5.16 0zm37.04 31.62l0 4.49 -26.2 0 0 -36.11 25.48 0 0 4.49 -20.32 0 0 11.09 18.11 0 0 4.39 -18.11 0 0 11.66 21.05 0zm15.53 -27.13l-12.38 0 0 -4.49 29.87 0 0 4.49 -12.38 0 0 31.62 -5.1 0 0 -31.62zm73.71 -4.49l-12.07 36.11 -5.42 0 -9.85 -28.84 -9.85 28.84 -5.52 0 -12.07 -36.11 5.31 0 9.75 29.35 10.16 -29.35 4.75 0 9.95 29.51 9.96 -29.51 4.9 0zm22.23 36.52c-3.64,0 -6.93,-0.8 -9.85,-2.4 -2.92,-1.6 -5.22,-3.81 -6.89,-6.63 -1.67,-2.82 -2.5,-5.97 -2.5,-9.44 0,-3.47 0.83,-6.62 2.5,-9.44 1.67,-2.82 3.96,-5.03 6.89,-6.63 2.92,-1.6 6.21,-2.4 9.85,-2.4 3.61,0 6.88,0.8 9.8,2.4 2.92,1.6 5.21,3.8 6.86,6.6 1.65,2.8 2.47,5.96 2.47,9.47 0,3.51 -0.83,6.66 -2.47,9.47 -1.65,2.8 -3.94,5 -6.86,6.6 -2.92,1.6 -6.19,2.4 -9.8,2.4zm0 -4.59c2.65,0 5.03,-0.6 7.14,-1.81 2.12,-1.2 3.79,-2.86 5,-4.98 1.22,-2.12 1.83,-4.48 1.83,-7.09 0,-2.61 -0.61,-4.98 -1.83,-7.09 -1.22,-2.11 -2.89,-3.77 -5,-4.98 -2.12,-1.2 -4.5,-1.81 -7.14,-1.81 -2.65,0 -5.04,0.6 -7.2,1.81 -2.15,1.2 -3.83,2.86 -5.06,4.98 -1.22,2.12 -1.83,4.48 -1.83,7.09 0,2.61 0.61,4.98 1.83,7.09 1.22,2.12 2.91,3.77 5.06,4.98 2.15,1.21 4.55,1.81 7.2,1.81zm51.17 4.18l-7.79 -11.09c-0.96,0.07 -1.72,0.1 -2.27,0.1l-8.92 0 0 10.99 -5.16 0 0 -36.11 14.08 0c4.68,0 8.36,1.12 11.04,3.35 2.68,2.24 4.02,5.31 4.02,9.23 0,2.79 -0.69,5.16 -2.06,7.12 -1.38,1.96 -3.34,3.39 -5.88,4.28l8.56 12.12 -5.62 0zm-10.21 -15.37c3.27,0 5.76,-0.71 7.48,-2.12 1.72,-1.41 2.58,-3.42 2.58,-6.04 0,-2.61 -0.86,-4.62 -2.58,-6.01 -1.72,-1.39 -4.21,-2.09 -7.48,-2.09l-8.77 0 0 16.25 8.77 0zm35.34 -0.67l-6.6 6.7 0 9.34 -5.16 0 0 -36.11 5.16 0 0 20.17 19.6 -20.17 5.88 0 -15.43 16.25 16.41 19.86 -6.04 0 -13.83 -16.04zm44.36 -15.58l0 12.59 18.11 0 0 4.44 -18.11 0 0 14.6 -5.16 0 0 -36.11 25.48 0 0 4.49 -20.32 0zm43.48 32.03c-3.64,0 -6.93,-0.8 -9.85,-2.4 -2.92,-1.6 -5.22,-3.81 -6.89,-6.63 -1.67,-2.82 -2.5,-5.97 -2.5,-9.44 0,-3.47 0.83,-6.62 2.5,-9.44 1.67,-2.82 3.96,-5.03 6.89,-6.63 2.92,-1.6 6.21,-2.4 9.85,-2.4 3.61,0 6.88,0.8 9.8,2.4 2.92,1.6 5.21,3.8 6.86,6.6 1.65,2.8 2.47,5.96 2.47,9.47 0,3.51 -0.83,6.66 -2.47,9.47 -1.65,2.8 -3.94,5 -6.86,6.6 -2.92,1.6 -6.19,2.4 -9.8,2.4zm0 -4.59c2.65,0 5.03,-0.6 7.14,-1.81 2.12,-1.2 3.79,-2.86 5,-4.98 1.22,-2.12 1.83,-4.48 1.83,-7.09 0,-2.61 -0.61,-4.98 -1.83,-7.09 -1.22,-2.11 -2.89,-3.77 -5,-4.98 -2.12,-1.2 -4.5,-1.81 -7.14,-1.81 -2.65,0 -5.04,0.6 -7.2,1.81 -2.15,1.2 -3.83,2.86 -5.06,4.98 -1.22,2.12 -1.83,4.48 -1.83,7.09 0,2.61 0.61,4.98 1.83,7.09 1.22,2.12 2.91,3.77 5.06,4.98 2.15,1.21 4.55,1.81 7.2,1.81zm51.17 4.18l-7.79 -11.09c-0.96,0.07 -1.72,0.1 -2.27,0.1l-8.92 0 0 10.99 -5.16 0 0 -36.11 14.08 0c4.68,0 8.36,1.12 11.04,3.35 2.68,2.24 4.02,5.31 4.02,9.23 0,2.79 -0.69,5.16 -2.06,7.12 -1.38,1.96 -3.34,3.39 -5.88,4.28l8.56 12.12 -5.62 0zm-10.21 -15.37c3.27,0 5.76,-0.71 7.48,-2.12 1.72,-1.41 2.58,-3.42 2.58,-6.04 0,-2.61 -0.86,-4.62 -2.58,-6.01 -1.72,-1.39 -4.21,-2.09 -7.48,-2.09l-8.77 0 0 16.25 8.77 0zm63.66 10.88l0 4.49 -26.2 0 0 -36.11 25.48 0 0 4.49 -20.32 0 0 11.09 18.11 0 0 4.39 -18.11 0 0 11.66 21.05 0zm8.36 -31.62l15.22 0c3.82,0 7.21,0.76 10.16,2.27 2.96,1.52 5.25,3.64 6.89,6.37 1.63,2.73 2.45,5.87 2.45,9.41 0,3.54 -0.81,6.68 -2.45,9.41 -1.63,2.73 -3.93,4.86 -6.89,6.37 -2.96,1.51 -6.35,2.27 -10.16,2.27l-15.22 0 0 -36.11zm14.91 31.62c2.92,0 5.49,-0.57 7.71,-1.7 2.22,-1.13 3.93,-2.72 5.13,-4.77 1.2,-2.05 1.81,-4.41 1.81,-7.09 0,-2.68 -0.6,-5.05 -1.81,-7.09 -1.21,-2.04 -2.92,-3.64 -5.13,-4.77 -2.22,-1.13 -4.79,-1.7 -7.71,-1.7l-9.75 0 0 27.13 9.75 0zm42.66 4.9c-4.81,0 -8.56,-1.38 -11.24,-4.13 -2.68,-2.75 -4.02,-6.71 -4.02,-11.86l0 -20.53 5.16 0 0 20.33c0,7.74 3.39,11.6 10.16,11.6 3.3,0 5.83,-0.95 7.58,-2.86 1.75,-1.91 2.63,-4.82 2.63,-8.74l0 -20.33 5 0 0 20.53c0,5.19 -1.34,9.16 -4.02,11.89 -2.68,2.73 -6.43,4.1 -11.25,4.1zm41.99 0c-3.61,0 -6.87,-0.8 -9.77,-2.4 -2.91,-1.6 -5.18,-3.8 -6.83,-6.6 -1.65,-2.8 -2.48,-5.96 -2.48,-9.47 0,-3.51 0.83,-6.66 2.48,-9.47 1.65,-2.8 3.94,-5 6.86,-6.6 2.92,-1.6 6.19,-2.4 9.8,-2.4 2.82,0 5.4,0.48 7.74,1.42 2.34,0.94 4.33,2.35 5.98,4.2l-3.35 3.25c-2.72,-2.85 -6.1,-4.28 -10.16,-4.28 -2.68,0 -5.11,0.6 -7.27,1.81 -2.16,1.2 -3.86,2.86 -5.08,4.98 -1.22,2.12 -1.83,4.48 -1.83,7.09 0,2.61 0.61,4.98 1.83,7.09 1.22,2.12 2.92,3.77 5.08,4.98 2.17,1.21 4.59,1.81 7.27,1.81 4.02,0 7.41,-1.44 10.16,-4.33l3.35 3.25c-1.65,1.86 -3.65,3.27 -6.01,4.23 -2.35,0.96 -4.94,1.44 -7.76,1.44zm43.28 -9.44l-19.19 0 -3.97 9.03 -5.31 0 16.35 -36.11 5.11 0 16.41 36.11 -5.42 0 -3.97 -9.03zm-1.81 -4.12l-7.79 -17.7 -7.79 17.7 15.58 0zm21.93 -18.47l-12.38 0 0 -4.49 29.87 0 0 4.49 -12.38 0 0 31.62 -5.1 0 0 -31.62zm23.11 -4.49l5.16 0 0 36.11 -5.16 0 0 -36.11zm32.29 36.52c-3.64,0 -6.93,-0.8 -9.85,-2.4 -2.92,-1.6 -5.22,-3.81 -6.89,-6.63 -1.67,-2.82 -2.5,-5.97 -2.5,-9.44 0,-3.47 0.83,-6.62 2.5,-9.44 1.67,-2.82 3.96,-5.03 6.89,-6.63 2.92,-1.6 6.21,-2.4 9.85,-2.4 3.61,0 6.88,0.8 9.8,2.4 2.92,1.6 5.21,3.8 6.86,6.6 1.65,2.8 2.47,5.96 2.47,9.47 0,3.51 -0.83,6.66 -2.47,9.47 -1.65,2.8 -3.94,5 -6.86,6.6 -2.92,1.6 -6.19,2.4 -9.8,2.4zm0 -4.59c2.65,0 5.03,-0.6 7.14,-1.81 2.12,-1.2 3.79,-2.86 5,-4.98 1.22,-2.12 1.83,-4.48 1.83,-7.09 0,-2.61 -0.61,-4.98 -1.83,-7.09 -1.22,-2.11 -2.89,-3.77 -5,-4.98 -2.12,-1.2 -4.5,-1.81 -7.14,-1.81 -2.65,0 -5.04,0.6 -7.2,1.81 -2.15,1.2 -3.83,2.86 -5.06,4.98 -1.22,2.12 -1.83,4.48 -1.83,7.09 0,2.61 0.61,4.98 1.83,7.09 1.22,2.12 2.91,3.77 5.06,4.98 2.15,1.21 4.55,1.81 7.2,1.81zm58.08 -31.93l0 36.11 -4.23 0 -21.66 -26.93 0 26.93 -5.16 0 0 -36.11 4.23 0 21.66 26.93 0 -26.93 5.16 0zm11.35 29.35c0.96,0 1.76,0.34 2.4,1.01 0.64,0.67 0.96,1.5 0.96,2.5 0,0.52 -0.06,1.02 -0.18,1.5 -0.12,0.48 -0.35,1.22 -0.7,2.22l-2.42 7.17 -3.25 0 1.91 -7.69c-0.65,-0.24 -1.18,-0.64 -1.57,-1.21 -0.39,-0.57 -0.59,-1.23 -0.59,-1.99 0,-1.03 0.33,-1.87 0.98,-2.53 0.65,-0.65 1.48,-0.98 2.48,-0.98zm-859.07 31l5.16 0 0 36.11 -5.16 0 0 -36.11zm47.04 0l0 36.11 -4.23 0 -21.66 -26.93 0 26.93 -5.16 0 0 -36.11 4.23 0 21.66 26.93 0 -26.93 5.16 0zm41.88 0l0 36.11 -4.23 0 -21.66 -26.93 0 26.93 -5.16 0 0 -36.11 4.23 0 21.66 26.93 0 -26.93 5.16 0zm27.13 36.52c-3.64,0 -6.93,-0.8 -9.85,-2.4 -2.92,-1.6 -5.22,-3.81 -6.89,-6.63 -1.67,-2.82 -2.5,-5.97 -2.5,-9.44 0,-3.47 0.83,-6.62 2.5,-9.44 1.67,-2.82 3.96,-5.03 6.89,-6.63 2.92,-1.6 6.21,-2.4 9.85,-2.4 3.61,0 6.88,0.8 9.8,2.4 2.92,1.6 5.21,3.8 6.86,6.6 1.65,2.8 2.47,5.96 2.47,9.47 0,3.51 -0.83,6.66 -2.47,9.47 -1.65,2.8 -3.94,5 -6.86,6.6 -2.92,1.6 -6.19,2.4 -9.8,2.4zm0 -4.59c2.65,0 5.03,-0.6 7.14,-1.81 2.12,-1.2 3.79,-2.86 5,-4.98 1.22,-2.12 1.83,-4.48 1.83,-7.09 0,-2.61 -0.61,-4.98 -1.83,-7.09 -1.22,-2.11 -2.89,-3.77 -5,-4.98 -2.12,-1.2 -4.5,-1.81 -7.14,-1.81 -2.65,0 -5.04,0.6 -7.2,1.81 -2.15,1.2 -3.83,2.86 -5.06,4.98 -1.22,2.12 -1.83,4.48 -1.83,7.09 0,2.61 0.61,4.98 1.83,7.09 1.22,2.12 2.91,3.77 5.06,4.98 2.15,1.21 4.55,1.81 7.2,1.81zm57.26 -31.93l-15.84 36.11 -5.11 0 -15.89 -36.11 5.57 0 13 29.66 13.1 -29.66 5.16 0zm26.46 27.08l-19.19 0 -3.97 9.03 -5.31 0 16.35 -36.11 5.11 0 16.41 36.11 -5.42 0 -3.97 -9.03zm-1.81 -4.12l-7.79 -17.7 -7.79 17.7 15.58 0zm21.93 -18.47l-12.38 0 0 -4.49 29.87 0 0 4.49 -12.38 0 0 31.62 -5.1 0 0 -31.62zm23.11 -4.49l5.16 0 0 36.11 -5.16 0 0 -36.11zm32.29 36.52c-3.64,0 -6.93,-0.8 -9.85,-2.4 -2.92,-1.6 -5.22,-3.81 -6.89,-6.63 -1.67,-2.82 -2.5,-5.97 -2.5,-9.44 0,-3.47 0.83,-6.62 2.5,-9.44 1.67,-2.82 3.96,-5.03 6.89,-6.63 2.92,-1.6 6.21,-2.4 9.85,-2.4 3.61,0 6.88,0.8 9.8,2.4 2.92,1.6 5.21,3.8 6.86,6.6 1.65,2.8 2.47,5.96 2.47,9.47 0,3.51 -0.83,6.66 -2.47,9.47 -1.65,2.8 -3.94,5 -6.86,6.6 -2.92,1.6 -6.19,2.4 -9.8,2.4zm0 -4.59c2.65,0 5.03,-0.6 7.14,-1.81 2.12,-1.2 3.79,-2.86 5,-4.98 1.22,-2.12 1.83,-4.48 1.83,-7.09 0,-2.61 -0.61,-4.98 -1.83,-7.09 -1.22,-2.11 -2.89,-3.77 -5,-4.98 -2.12,-1.2 -4.5,-1.81 -7.14,-1.81 -2.65,0 -5.04,0.6 -7.2,1.81 -2.15,1.2 -3.83,2.86 -5.06,4.98 -1.22,2.12 -1.83,4.48 -1.83,7.09 0,2.61 0.61,4.98 1.83,7.09 1.22,2.12 2.91,3.77 5.06,4.98 2.15,1.21 4.55,1.81 7.2,1.81zm58.08 -31.93l0 36.11 -4.23 0 -21.66 -26.93 0 26.93 -5.16 0 0 -36.11 4.23 0 21.66 26.93 0 -26.93 5.16 0zm47.71 27.08l-19.19 0 -3.97 9.03 -5.31 0 16.35 -36.11 5.11 0 16.41 36.11 -5.42 0 -3.97 -9.03zm-1.81 -4.12l-7.79 -17.7 -7.79 17.7 15.58 0zm47.61 -22.96l0 36.11 -4.23 0 -21.66 -26.93 0 26.93 -5.16 0 0 -36.11 4.23 0 21.66 26.93 0 -26.93 5.16 0zm10.83 0l15.22 0c3.82,0 7.21,0.76 10.16,2.27 2.96,1.52 5.25,3.64 6.89,6.37 1.63,2.73 2.45,5.87 2.45,9.41 0,3.54 -0.81,6.68 -2.45,9.41 -1.63,2.73 -3.93,4.86 -6.89,6.37 -2.96,1.51 -6.35,2.27 -10.16,2.27l-15.22 0 0 -36.11zm14.91 31.62c2.92,0 5.49,-0.57 7.71,-1.7 2.22,-1.13 3.93,-2.72 5.13,-4.77 1.2,-2.05 1.81,-4.41 1.81,-7.09 0,-2.68 -0.6,-5.05 -1.81,-7.09 -1.21,-2.04 -2.92,-3.64 -5.13,-4.77 -2.22,-1.13 -4.79,-1.7 -7.71,-1.7l-9.75 0 0 27.13 9.75 0zm41.58 -31.62l5.16 0 0 36.11 -5.16 0 0 -36.11zm49.47 36.11l-0.05 -26.31 -13.05 21.92 -2.37 0 -13.05 -21.77 0 26.15 -4.95 0 0 -36.11 4.23 0 15.06 25.38 14.85 -25.38 4.23 0 0.05 36.11 -4.95 0zm29.87 -36.11c4.68,0 8.36,1.12 11.04,3.35 2.68,2.24 4.02,5.31 4.02,9.23 0,3.92 -1.34,7 -4.02,9.23 -2.68,2.23 -6.36,3.35 -11.04,3.35l-8.92 0 0 10.94 -5.16 0 0 -36.11 14.08 0zm-0.15 20.69c3.27,0 5.76,-0.7 7.48,-2.09 1.72,-1.39 2.58,-3.4 2.58,-6.01 0,-2.61 -0.86,-4.62 -2.58,-6.01 -1.72,-1.39 -4.21,-2.09 -7.48,-2.09l-8.77 0 0 16.2 8.77 0zm44 6.39l-19.19 0 -3.97 9.03 -5.31 0 16.35 -36.11 5.11 0 16.41 36.11 -5.42 0 -3.97 -9.03zm-1.81 -4.12l-7.79 -17.7 -7.79 17.7 15.58 0zm32.19 13.57c-3.61,0 -6.87,-0.8 -9.77,-2.4 -2.91,-1.6 -5.18,-3.8 -6.83,-6.6 -1.65,-2.8 -2.48,-5.96 -2.48,-9.47 0,-3.51 0.83,-6.66 2.48,-9.47 1.65,-2.8 3.94,-5 6.86,-6.6 2.92,-1.6 6.19,-2.4 9.8,-2.4 2.82,0 5.4,0.48 7.74,1.42 2.34,0.94 4.33,2.35 5.98,4.2l-3.35 3.25c-2.72,-2.85 -6.1,-4.28 -10.16,-4.28 -2.68,0 -5.11,0.6 -7.27,1.81 -2.16,1.2 -3.86,2.86 -5.08,4.98 -1.22,2.12 -1.83,4.48 -1.83,7.09 0,2.61 0.61,4.98 1.83,7.09 1.22,2.12 2.92,3.77 5.08,4.98 2.17,1.21 4.59,1.81 7.27,1.81 4.02,0 7.41,-1.44 10.16,-4.33l3.35 3.25c-1.65,1.86 -3.65,3.27 -6.01,4.23 -2.35,0.96 -4.94,1.44 -7.76,1.44zm27.91 -32.03l-12.38 0 0 -4.49 29.87 0 0 4.49 -12.38 0 0 31.62 -5.1 0 0 -31.62z"/>
   </g>
   <g>
    <g>
     <path class="fil1" d="M412.96 301.65c19.07,42.96 -31.59,79.35 -0.31,145.05 20.34,42.72 43.86,40.55 62.57,66.79 39.87,55.9 -38.48,120.28 -78.27,61.78 -18.3,-26.9 -6.2,-46.67 1.77,-73.05 26.66,-88.22 -59.83,-171.15 -135.46,-138.6 -41.67,17.93 -39.77,46.22 -61.91,67.11 -52.28,49.37 -114.83,-41.29 -60.99,-84.11 43,-34.2 75.68,40.49 145.64,-4.58 34.36,-22.14 32.97,-51.53 58.12,-67.21 23.52,-14.66 54.81,-4.78 68.84,26.82z"/>
     <path class="fil1" d="M205.7 77.2c2.51,21 -11.15,34.93 -4.68,56.04 7.94,25.94 35.93,29.13 51.54,28.14 17.32,-1.11 47.26,-3.87 38.04,28.4 -18.34,64.2 -110.14,31.78 -164.8,115.81 -13.83,21.25 -12.73,35.08 -39.04,52.62 -54.78,36.52 -87.98,-17.66 -23.64,-55.25 11.13,-6.5 133.9,-26.6 146.32,-117.88 3.07,-22.58 -10.68,-41.28 -34.11,-45.57 -15.1,-2.76 -46.06,7.65 -55.95,-11.09 -15.29,-28.96 56.28,-90.77 86.32,-51.22z"/>
     <path class="fil1" d="M563.46 65.04c19.39,37.01 -18.73,53.58 -46.06,48.31 -27.37,-5.28 -32.95,-26.32 -81.18,-37.1 -33.09,-7.4 -47.08,-2.39 -84.96,20.49 -23.96,14.47 -61.34,12.51 -80.06,-20.74 -19.99,-35.53 23.43,-53.19 47.77,-47.89 24.24,5.28 47.26,29.71 81.21,36.86 28.9,6.09 50.49,3.08 83.59,-19.52 25.4,-17.34 63.31,-11.69 79.69,19.58z"/>
     <path class="fil1" d="M473.39 235.35c-40.25,-4.84 -78.6,-66.84 -40.54,-90.91 36.63,-0.5 54.93,48.11 97.95,35.69 29.12,-8.4 19.58,-32.38 38.98,-41.11 27.91,-12.56 79.06,60.27 49.81,84.69 -27.26,22.76 -59.85,-44.38 -101.77,-32.42 -27.04,7.72 -22.39,30.02 -44.43,44.05z"/>
     <path class="fil1" d="M515.89 653.39c13.01,44.49 -57.71,75.52 -72.68,27.92 -12.91,-41.06 59.14,-74.24 72.68,-27.92z"/>
     <path class="fil1" d="M301.33 513.58c15.97,42.48 -49.98,60.63 -67.91,13.79 -16.06,-41.93 50.55,-59.96 67.91,-13.79z"/>
     <path class="fil1" d="M372.97 164.47c13.94,40.44 -48.97,63.23 -64.16,21.8 -13.24,-36.11 49.62,-63.98 64.16,-21.8z"/>
     <path class="fil1" d="M680.38 297.21c5.86,35.91 -52.64,30.86 -58.89,-2.87 -6.09,-32.89 54,-27.12 58.89,2.87z"/>
    </g>
    <g>
     <path class="fil1" d="M98.24 425.43c8.41,31.02 -28.73,59.53 -40.42,25.2 -9.32,-27.37 29.67,-64.83 40.42,-25.2z"/>
     <g>
      <path class="fil1" d="M756.21 232.65c-6.83,-12.27 -16.25,-20.07 -21.03,-17.4 -4.78,2.66 -3.12,14.77 3.71,27.04 6.83,12.27 16.25,20.07 21.03,17.4 4.78,-2.66 3.12,-14.77 -3.71,-27.04z"/>
      <path class="fil1" d="M667.5 116.34c-14.56,-9.57 -29.39,-12.73 -33.11,-7.06 -3.73,5.67 5.05,18.03 19.61,27.6 14.56,9.57 29.39,12.73 33.11,7.06 3.73,-5.67 -5.05,-18.03 -19.61,-27.6z"/>
      <path class="fil1" d="M477.46 14.93c-15.14,-3.09 -28.38,-0.82 -29.59,5.07 -1.21,5.9 10.09,13.19 25.22,16.28 15.13,3.1 28.38,0.82 29.59,-5.07 1.21,-5.9 -10.09,-13.19 -25.22,-16.28z"/>
      <path class="fil1" d="M289.2 2.4c-16.36,4.31 -28.25,12.98 -26.57,19.35 1.68,6.37 16.3,8.04 32.66,3.73 16.36,-4.31 28.25,-12.98 26.57,-19.35 -1.68,-6.37 -16.3,-8.04 -32.66,-3.73z"/>
      <path class="fil1" d="M65.74 207.29c-7.81,15 -9.41,29.63 -3.57,32.67 5.85,3.04 16.92,-6.65 24.73,-21.65 7.81,-15 9.41,-29.63 3.57,-32.67 -5.85,-3.04 -16.92,6.65 -24.73,21.65z"/>
      <path class="fil1" d="M0.53 419.12c-1.98,16.8 1.73,31.04 8.27,31.81 6.54,0.77 13.45,-12.22 15.43,-29.02 1.97,-16.8 -1.73,-31.04 -8.27,-31.81 -6.55,-0.77 -13.45,12.22 -15.43,29.02z"/>
     </g>
    </g>
   </g>
  </g>
 </g>
</svg>
